<svg xmlns="http://www.w3.org/2000/svg" viewBox="0 0 24 24" fill="none"><rect x="1" y="1" width="22" height="22" rx="5" fill="#f0f6fc"/><path d="M12 3C7.03 3 3 7.03 3 12c0 3.98 2.58 7.35 6.16 8.54.45.08.62-.2.62-.44v-1.56c-2.5.54-3.03-1.2-3.03-1.2-.4-1.04-1-1.32-1-1.32-.82-.56.06-.55.06-.55.91.07 1.39.94 1.39.94.81 1.39 2.13.99 2.65.76.08-.59.32-.99.58-1.22-2.02-.23-4.14-1.01-4.14-4.5 0-1 .35-1.8.93-2.44-.1-.23-.4-1.17.09-2.44 0 0 .76-.24 2.5.93A8.7 8.7 0 0112 8.25c.77 0 1.54.1 2.25.3 1.74-1.17 2.5-.93 2.5-.93.49 1.27.19 2.21.09 2.44.58.64.93 1.44.93 2.44 0 3.5-2.13 4.27-4.16 4.5.33.28.62.84.62 1.7v2.52c0 .24.16.52.62.44A9.01 9.01 0 0021 12c0-4.97-4.03-9-9-9z" fill="#1b1f23"/></svg>
